<?xml version="1.0" encoding="UTF-8" standalone="no"?>
<!-- Created with Inkscape (http://www.inkscape.org/) -->

<svg
   xmlns:dc="http://purl.org/dc/elements/1.1/"
   xmlns:cc="http://creativecommons.org/ns#"
   xmlns:rdf="http://www.w3.org/1999/02/22-rdf-syntax-ns#"
   xmlns:svg="http://www.w3.org/2000/svg"
   xmlns="http://www.w3.org/2000/svg"
   xmlns:sodipodi="http://sodipodi.sourceforge.net/DTD/sodipodi-0.dtd"
   xmlns:inkscape="http://www.inkscape.org/namespaces/inkscape"
   width="250mm"
   height="250mm"
   viewBox="0 0 250 250"
   version="1.1"
   id="svg8"
   inkscape:version="0.92.2 (5c3e80d, 2017-08-06)"
   sodipodi:docname="gearificator-logo.svg"
   inkscape:export-filename="/home/yoh/proj/flywheel/artwork/gearificator-logo.png"
   inkscape:export-xdpi="26.01"
   inkscape:export-ydpi="26.01">
  <defs
     id="defs2">
    <inkscape:perspective
       id="perspective2437"
       inkscape:persp3d-origin="372.04724 : 350.78738 : 1"
       inkscape:vp_z="744.09449 : 526.18107 : 1"
       inkscape:vp_y="0 : 999.99996 : 0"
       inkscape:vp_x="0 : 526.18107 : 1"
       sodipodi:type="inkscape:persp3d" />
  </defs>
  <sodipodi:namedview
     id="base"
     pagecolor="#ffffff"
     bordercolor="#666666"
     borderopacity="1.0"
     inkscape:pageopacity="0.0"
     inkscape:pageshadow="2"
     inkscape:zoom="0.1767767"
     inkscape:cx="-232.41806"
     inkscape:cy="1043.3095"
     inkscape:document-units="mm"
     inkscape:current-layer="layer1"
     showgrid="false"
     inkscape:snap-global="false"
     fit-margin-top="0"
     fit-margin-left="0"
     fit-margin-right="0"
     fit-margin-bottom="0">
    <inkscape:grid
       type="xygrid"
       id="grid1058"
       originx="289.95833"
       originy="-244.79605" />
  </sodipodi:namedview>
  <metadata
     id="metadata5">
    <rdf:RDF>
      <cc:Work
         rdf:about="">
        <dc:format>image/svg+xml</dc:format>
        <dc:type
           rdf:resource="http://purl.org/dc/dcmitype/StillImage" />
        <dc:title></dc:title>
      </cc:Work>
    </rdf:RDF>
  </metadata>
  <g
     inkscape:label="Layer 1"
     inkscape:groupmode="layer"
     id="layer1"
     transform="translate(289.95834,197.79605)">
    <g
       id="g1109"
       transform="translate(3.6607449e-6,41.261196)">
      <g
         transform="matrix(0.25633609,0,0,0.25633609,-289.69863,-238.73334)"
         id="g883">
        <path
           sodipodi:nodetypes="ccccccccccccccccccccccccccccccccccccccccc"
           style="fill:#153379"
           inkscape:connector-curvature="0"
           d="m -0.8,0 c -1.6599,6.0803 7.1435,-3.403 0,-0.8 z m 497.24,-0.79062 c -18.597,2.7691 -39.446,4.0407 -53.969,17.523 -16.564,13.21 -23.381,39.194 -11.88,57.731 10.419,10.224 21.505,24.458 16.403,39.784 -2.2445,3.7584 0.40078,2.7718 3.2266,1.6359 7.0194,-2.3664 13.921,-5.0672 20.931,-7.4 -6.2945,-1.9633 -3.4152,-9.1275 -3.4938,-13.913 0.46924,-4.1211 -2.1403,-7.87 -5.9859,-9.2453 -12.987,-8.2598 -25.281,-22.622 -23.795,-38.903 2.088,-13.986 13.982,-24.413 26.103,-30.327 22.759,-10.156 49.689,-7.7548 72.325,1.6344 15.791,8.1192 19.598,33.928 4.4906,44.562 -9.1475,8.4984 -22.309,6.7873 -33.747,7.5047 -5.6581,0.87775 -13.803,0.80789 -16.066,7.3641 -1.9608,4.2278 1.8323,9.1074 6.3891,8.4063 7.9189,-1.3128 16.55,5.647 15.175,14.112 0.27953,2.5946 -3.2433,5.899 0.58281,6.7891 16.118,8.4214 33.4,15.024 48.012,25.95 24.033,-5.6448 48.891,-8.4801 72.127,-17.07 15.331,-14.543 22.863,-39.37 12.279,-58.724 -6.84,-11.863 -18.75,-19.632 -29.77,-27.226 -29.86,-18.818 -65.07,-27.773 -100.02,-30.209 -6.4393,0.006306 -12.881,-0.012574 -19.319,0.009375 z m 81.444,27.505 c 18.516,6.9204 32.157,29.434 24.091,48.584 -4.6783,10.361 -14.906,19.883 -26.839,20.145 -3.5304,-0.0247 -8.1775,-2.2233 -9.4391,-4.9797 22.002,-9.8576 30.256,-41.357 15.102,-60.352 -0.7299,-1.0793 -2.5845,-2.8404 -2.9143,-3.3976 z M 2.34,646.7939 c 0.049473,15.365 1.9874,68.29418 7.668,82.42218 12.023,27.683 30.106,52.536 51.122,74.067 59.325,60.13 136.32,99.914 216.15,125.44 130.88897,34.4162 259.59919,55.65217 376.5,2.541 31.509,-15.606 58.888,-39.213 80.146,-67.085 C 898.04897,430.17686 3.7902548,397.70662 2.34,646.7939 Z"
           id="path873" />
        <path
           inkscape:connector-curvature="0"
           id="path996"
           d="m 494.35,7.9625 c -20.318,0.089193 -42.007,8.0457 -53.375,25.741 -7.8203,10.927 -5.378,26.037 2.2738,36.346 5.376,8.0674 13.216,14.06 21.315,19.104 4.3504,5.6665 -2.5008,14.625 3.5391,19.503 4.6176,0.69635 9.6886,-1.9492 14.464,-2.4672 9.776,-2.0831 20.099,-3.373 29.853,-0.28281 3.9031,-7.1467 1.3937,-17.364 -6.4828,-20.533 -3.7867,-2.3424 -8.5194,-0.39686 -12.278,-2.3625 -3.822,-3.4613 0.24817,-9.8591 4.8312,-10.081 13.362,-4.0585 29.472,1.416 41.336,-7.8828 10.08,-5.908 14.18,-18.764 11.25,-29.78 -2.22,-10.51 -10.56,-19.257 -21.07,-21.704 -11.46,-3.8224 -23.57,-5.7958 -35.66,-5.5955 z"
           style="fill:#d9d6d1" />
        <path
           inkscape:connector-curvature="0"
           id="path994"
           d="m 573.97,25.4795 c 16.642,12.811 16.709,39.412 3.0811,54.43 -3.8247,4.4295 -8.7482,7.8589 -14.162,10.061 4.5756,7.4996 14.826,8.8547 22.181,4.8578 14.42,-6.6081 24.252,-23.421 20.002,-39.222 -3.8533,-15.62 -16.93,-29.453 -33.125,-32.012 l 2.0234,1.8859 z"
           style="fill:#d9d6d1" />
        <path
           inkscape:connector-curvature="0"
           id="path992"
           d="m 205.95,485.2495 c -11.731,1.8242 -23.411,4.036 -34.897,7.0547 -1.381,16.679 -7.3071,33.07 -5.5047,49.983 11.361,-1.6332 22.784,-2.4826 34.206,-3.5609 1.8351,-17.974 3.9408,-35.928 7.3125,-53.655 l -0.79002,0.12597 -0.32716,0.0522 z"
           style="fill:#d9d6d1" />
        <path
           inkscape:connector-curvature="0"
           id="path990"
           d="m 160.173,493.987 c -5.4389,1.4618 -11.986,1.8681 -16.722,4.0109 -3.216,16.476 -5.8405,33.084 -7.2781,49.817 6.1161,-1.1995 12.265,-2.2214 18.403,-3.3 2.0378,-16.928 5.0529,-33.759 6.6672,-50.753 l -0.78289,0.16458 -0.28742,0.0604 z"
           style="fill:#d9d6d1" />
        <path
           sodipodi:nodetypes="ccccccccccccccccccccccccccccccccccccccccccccccccccccccccccccccccccccccccccccccccccccccccccccccccccccccccccccccccccccccccccccccccccccccccccccccccccccccccccccccccccc"
           inkscape:connector-curvature="0"
           id="path1006"
           d="m 498.51,102.47 c -11.939,0.66227 -23.797,3.3414 -35.131,7.0266 -5.5617,2.1776 -11.49,3.9044 -16.877,6.1453 -4.3726,7.3228 -13.846,8.4841 -20.459,13.072 -20.399,11.458 -37.386,28.039 -57.904,39.275 -14.157,9.4991 -23.346,26.497 -22.017,43.68 -0.8797,17.282 -12.207,31.508 -22.308,44.675 -11.466,24.33 3.1701,52.261 -8.0388,76.575 -5.6198,11.162 -11.515,22.366 -15.438,34.288 -2.1294,6.6949 -2.7978,13.859 -0.26877,20.563 3.9447,17.159 6.6371,35.45 1.2344,52.617 -2.3827,14.077 7.7179,26.034 10.262,39.3 3.3675,1.7478 8.435,-0.55992 9.6031,-3.1453 -6.7209,-13.346 -14.818,-29.163 -8.1219,-43.912 6.2668,-19.409 1.5331,-40.059 -3.0344,-59.269 -1.5208,-19.711 13.288,-35.141 19.742,-52.677 4.1417,-14.231 1.5813,-29.388 0.74524,-43.9 -0.89274,-8.208 -1.3834,-17.207 3.4766,-24.328 7.4067,-12.439 22.067,-21.583 23.222,-37.208 0.83906,-12.289 -1.5705,-26.929 7.9797,-36.491 34.037,-27.132 72.267,-49.533 113.53,-63.584 6.1761,-1.7678 14.387,1.7576 14.805,9.0312 2.1491,11.017 -4.5675,21.474 -3.7844,32.367 1.3942,4.4361 6.9089,3.3048 9.9469,1.4031 1.4956,-0.53349 4.5696,-3.0614 3.7453,0.275 -0.13405,4.4782 -1.8797,8.7427 -1.8922,13.236 6.0223,2.155 9.9941,-4.2136 14.577,-6.4172 3.6858,2.952 -0.56146,7.833 -1.3547,11.231 -1.4742,3.5908 3.9126,5.2646 6.2172,2.9797 2.5702,-1.9235 6.0926,-3.2361 8.5984,-0.45313 3.406,3.8074 -1.5215,8.4767 -1.15,12.841 3.8155,-1.9853 9.0237,0.56008 8.1344,5.2547 -0.91138,1.051 -4.0522,-1.793 -5.6125,-2.2203 -9.9269,-5.8782 -19.282,-12.818 -29.924,-17.374 -10.402,-6.3769 -22.695,-14.255 -35.398,-10.104 -25.414,11.658 -52.699,21.288 -73.914,40.159 -3.572,3.19 -6.8247,6.7142 -9.9391,10.347 13.06,-3.202 23.556,-13.294 37.256,-14.383 17.387,-3.7599 29.535,-20.852 47.856,-21.181 2.9315,-0.38004 5.4412,0.56108 5.7156,3.8266 4.2025,13.114 -2.2512,26.663 -2.1953,39.881 3.7247,6.0069 12.14,4.138 17.202,1.0109 2.8638,-2.6204 3.1115,2.549 2.5125,4.4109 -0.79519,3.6875 -2.1281,10.062 2.6859,11.492 5.2945,0.64355 5.7234,-8.3486 10.922,-7.0969 1.9388,0.83401 -0.27642,3.857 0.47031,5.6094 0.42937,4.2651 0.78183,10.451 5.4156,12.28 3.4851,0.61248 5.1818,-4.4392 6.5172,-5.5984 1.852,4.7015 -1.178,12.108 3.9453,15.227 2.8582,0.99898 6.8692,-1.7803 8.2453,2.2906 1.568,3.7544 2.545,9.7131 -1.1703,12.38 -4.5263,-1.0173 -7.7293,-5.3996 -12,-7.3391 -11.763,-6.9097 -24.436,-12.439 -37.37,-16.628 -15.547,-2.7873 -29.411,7.1376 -41.005,16.108 -13.576,10.779 -28.728,19.167 -43.911,27.49 -6.0555,3.5612 -11.838,7.6322 -16.922,12.499 10.815,1.9708 18.07,-9.5465 28.67,-8.9453 18.255,-2.02 29.201,-18.759 44.364,-27.028 4.7141,-2.3242 10.395,-4.7309 15.583,-3.5969 6.5976,5 3.4666,14.378 2.7844,21.2 -1.3654,5.4512 1.6789,11.482 -2.2047,16.289 -2.4066,4.2134 -7.8143,9.809 -3.9594,14.806 1.9322,2.7815 5.4645,3.7874 8.1125,1.3453 3.2482,-2.0041 5.2138,-6.3858 8.2234,-7.9453 3.721,4.7094 -3.0087,11.88 1.8594,16.339 4.0022,3.4598 8.6992,-1.4367 10.111,-5.1984 0.6612,-1.3288 1.7802,-4.279 2.0547,-1.2547 0.95952,6.1914 -4.0362,13.883 1.364,19.047 3.6235,3.3295 9.2384,0.50773 10.752,-3.6656 1.0662,-1.8448 1.7732,-4.2732 2.6016,-5.9328 5.5618,8.1154 -4.6968,18.506 1.8562,26.375 2.5018,3.365 6.7734,0.80206 8.825,-1.6875 1.135,-1.2838 4.158,-2.9798 3.1141,0.25625 -0.63835,3.8625 -2.2602,16.001 5.0781,12.708 1.3898,-0.73119 3.7324,-4.1119 4.8109,-2.5672 -0.238,4.7354 -1.3102,9.3734 -2.2469,14.003 -13.134,-10.162 -27.651,-18.979 -43.544,-23.847 -13.291,-11.166 -34.568,-11.261 -47.545,0.425 -19.805,14.563 -44.771,19.517 -65.556,32.261 -2.4534,2.8258 2.4632,4.4775 4.6406,4.15 27.254,-2.2942 50.96,-17.461 75.878,-27.283 6.887,-0.90388 14.099,3.7321 14.519,11.027 1.6228,10.592 -2.5919,20.823 -3.8766,31.247 -0.14659,4.7163 5.9477,6.1269 9.1625,3.5234 1.959,-0.60798 2.6794,-3.4712 4.1828,-3.9203 4.2028,2.4598 2.138,8.4962 2.7078,12.544 -0.31835,3.3038 1.5058,8.087 5.6422,6.95 4.3369,0.25562 2.7606,-6.5068 6.5719,-6.9891 4.6594,4.523 4.8512,12.001 6.0359,18.034 0.88457,2.774 4.3006,1.8167 4.8203,-0.67812 1.3722,-1.7208 1.6981,-6.0574 4.3047,-6.0188 2.7722,3.8318 2.4882,9.2245 2.6219,13.836 -0.21011,4.2604 -1.3459,8.7623 -4.1172,12.025 -1.0417,-3.5194 -5.2516,-8.3874 -9.0016,-5.1719 -2.3443,1.4224 -2.8383,7.1412 -6.2312,4.3016 -2.4368,-3.7627 -0.41926,-11.246 -6.0125,-12.741 -4.5603,0.003 -4.8195,6.3238 -6.35,9.4484 -0.47343,1.6761 -3.4844,3.9562 -4.0594,1.0359 -2.3005,-4.044 -0.76783,-9.9717 -3.4531,-13.377 -4.8966,-0.5864 -5.3561,5.6774 -6.6891,8.9109 -0.75071,2.637 -3.5657,2.1337 -4.1703,-0.22031 -3.6952,-7.2483 -0.99777,-15.546 -2.4734,-23.273 -7.939,6.9553 -5.6722,18.435 -7.2344,27.625 -0.31427,1.2535 -0.439,3.851 -2.0562,1.7938 -3.007,-2.4695 -7.3976,-6.721 -11.43,-3.9469 -2.75,4.3174 0.0248,12.134 -6.0484,13.872 -5.2781,-0.0287 -5.0996,-9.5155 -10.85,-8.4891 -3.4618,2.0888 -2.364,7.5515 -3.0953,11.077 -0.22644,2.0286 -1.0326,6.4352 -3.3703,6.5328 -4.3256,-3.7142 -3.3179,-9.8846 -5.2781,-14.77 -3.9997,-0.7687 -6.6452,3.2298 -6.0328,6.8453 -0.27494,4.1684 2.1668,9.6076 -1.475,12.772 -5.2508,-1.6831 -3.2745,-9.7935 -8.0234,-12.078 -4.3998,0.008 -5.1979,5.7444 -7.4565,8.515 -1.8965,2.5622 -2.5092,7.4759 1.4346,8.3975 71.197,10.412 139.96,34.324 204.15,66.57 55.316,30.725 106.09,71.523 143.36,123.11 18.2,26.469 31.653,58.988 25.966,91.602 -8.96708,34.31271 3.64841,1.21986 -26.4558,94.64192 23.502,14.83 41.838,36.203 64.308,52.439 16.188,12.535 31.984,25.572 47.045,39.417 82.765,70.98099 176.18002,128.66999 273.07002,178.12999 6.4459,1.5193 2.5036,-7.3495 3.5797,-11.2 V 915.01051 c -34.505,-11.637 -68.354,-25.519 -100.61,-42.456 -9.0558,-5.6935 -20.16002,-10.321 -25.40702,-20.256 -3.4295,-8.5633 -2.9332,-20.424 -12.269,-25.324 -18.223,-12.075 -38.923,-19.532 -57.353,-31.216 -31.168,-17.776 -64.906,-35.343 -84.969,-66.345 -4.1746,-4.8718 -5.9132,-12.048 -2.3719,-17.711 2.5545,-5.2889 9.499,-6.8306 14.287,-3.5707 26.577,9.7884 49.135,29.173 77.296,34.885 1.3962,-7.0626 -8.8356,-9.5798 -7.2766,-16.738 0.458,-4.9617 2.0015,-12.536 -3.7718,-15.116 -42.978,-20.327 -84.587,-43.665 -123.66,-70.752 -4.4594,-8.839 -7.2381,-18.484 -8.5594,-28.281 8.3041,0.33063 13.815,8.1285 21.62,9.7938 5.2338,0.0526 8.8823,-5.2502 14.2,-4.8 2.228,-3.9695 -1.0845,-8.1904 -4.9938,-9.2375 -8.5019,-2.9207 -15.693,-8.5233 -23.767,-12.391 -7.5465,-4.048 -14.293,-10.21 -16.686,-18.632 -3.0454,-6.4156 -11.656,-10.495 -10.628,-18.486 7.4623,0.71599 13.005,6.7672 19.578,9.79 26.369,16.122 53.915,30.703 83.485,40.022 21.005,8.2486 40.323,21.462 63.018,25.053 63.1,14.374 126.97002,25.953 188.84002,45.184 -0.3576,-6.0447 0.7093,-13.073 -0.5156,-18.519 -36.719,-14.032 -76.416,-16.432 -114.24,-26.264 -34.98902,-7.5527 -72.02602,-6.1534 -105.44002,-19.976 -45.544,-20.614 -95.594,-33.866 -134.89,-66.056 -7.6797,-5.8643 -11.342,-15.323 -16.606,-23.202 -10.559,-18.136 -19.139,-40.238 -11.962,-61.206 7.5242,-18.774 2.3381,-39.631 -3.9747,-57.969 -7.5629,-21.901 -17.3,-45.339 -11.357,-68.744 2.139,-29.451 -1.9213,-59.106 -7.9094,-87.933 -8.7164,-20.759 -4.1309,-44.623 -13.383,-65.3 -4.1008,-12.45 -0.91829,-28.127 -11.002,-38.225 -13.242,-10.149 -22.428,-26.525 -39.159,-31.691 -11.373,-3.7409 -22.139,3.4473 -32.991,5.651 -18.089,4.7939 -36.645,7.511 -54.876,11.719 -15.399,-11.208 -33.319,-18.219 -50.183,-26.77 -4.1635,-1.1359 -8.4983,-1.5599 -12.806,-1.461 z"
           style="fill:#2a1b11" />
        <path
           inkscape:connector-curvature="0"
           id="path1004"
           d="m 641.37,122.879 c 10.924,0.16642 16.031,11.616 23.789,17.462 3.1655,2.699 8.4169,3.3267 9.025,8.3281 1.9113,6.4177 -2.9663,11.608 -7.6938,15.098 -16.018,13.096 -37.421,16.004 -57.416,17.116 -2.049,3.2907 1.3981,6.3773 4.5672,6.6844 2.5666,0.95628 7.302,1.0341 8.1922,3.675 -4.7753,0.95059 -11.328,-0.703 -14.839,3.4938 -1.5927,3.1443 1.9622,5.6491 3.6063,7.3422 -3.2943,1.4826 -10.08,0.63744 -10.502,5.5969 1.5832,2.1609 6.1116,1.6117 8.995,2.2629 16.962,1.576 33.767,-2.3108 50.238,-5.8441 -5.2543,10.807 -18.588,12.632 -29.258,12.66 -8.257,-0.1487 -16.758,0.0403 -24.874,0.0305 -26.121,-6.6722 -49.597,-29.834 -50.865,-57.712 -1.3569,-10.162 4.9554,-20.648 14.912,-23.532 11.775,-3.8539 24.539,-3.0464 36.462,-6.4609 10.186,-0.82713 20.849,5.7407 25.1,15.128 -13.294,4.7778 -27.644,5.2819 -41.477,7.7734 -7.383,-4.6219 -13.713,-14.196 -23.588,-12.658 -3.1555,0.70336 -3.1141,5.3335 -0.26094,6.6141 7.0264,4.2767 14.468,8.004 19.339,15.012 4.4343,5.0677 8.453,11.762 14.483,14.705 15.078,-5.5259 33.549,-0.9058 46.916,-11.447 3.1369,-2.061 4.8812,-5.3733 3.9453,-9.1328 -1.9093,-13.168 -14.768,-20.409 -23.842,-28.405 4.3616,-2.4726 9.6674,-2.9257 14.545,-3.7844 l 0.48594,-0.008 h 0.0125 z"
           style="fill:#2a1b11" />
        <path
           inkscape:connector-curvature="0"
           id="path1002"
           d="m 629.081,157.367 c 2.029,0.32254 5.6969,-0.3918 6.6953,1.7766 -1.575,3.9754 -6.3923,1.6703 -9.5453,3.1078 -8.6777,1.3977 -18.078,6.6401 -26.686,2.4781 -1.1469,-0.72264 -5.2956,-4.0228 -1.5531,-3.5078 10.421,-0.87494 20.664,-3.6953 31.089,-3.8547 z"
           style="fill:#2a1b11" />
        <path
           style="fill:#a36743"
           inkscape:connector-curvature="0"
           d="m 481.72,113.22 c -9.2059,0.92431 -17.445,5.956 -26.048,9.0294 -33.264,14.317 -64.611,33.303 -92.552,56.311 -9.3218,10.481 -6.445,25.648 -7.7188,38.452 -3.1212,18.486 -24.679,27.363 -26.955,46.289 -0.49294,18.64 4.6302,37.556 0.12031,55.958 -6.2253,17.532 -20.758,32.682 -20.256,52.23 1.3321,10.31 4.9036,20.337 5.6246,30.808 1.5073,12.133 0.0303,24.322 -4.3043,35.638 -3.1661,14.342 4.7932,27.986 10.489,40.434 -1.5138,1.3424 -3.6581,1.887 -4.9797,3.5469 23.893,-0.40496 47.039,8.872 70.997,6.9406 4.0877,-0.79055 -3.5526,-1.0232 -2.727,-3.7843 0.9405,-4.0083 3.3862,-7.7188 5.775,-10.98 2.8129,-1.9248 3.1603,3.6521 4.1065,5.1857 0.71167,2.8658 3.6458,8.1912 7.1466,5.6065 4.6938,-5.0296 -0.98181,-12.934 2.7656,-18.173 3.4094,-2.2261 2.4313,4.05 3.3578,5.9875 0.59289,3.3475 2.4844,8.0718 5.9438,8.4156 6.0825,-4.1154 2.7271,-12.767 5.9953,-17.966 4.662,0.49592 4.618,8.2694 9.7469,8.5703 5.1789,0.13455 6.7996,-5.9332 6.85,-10.109 -0.0126,-2.613 1.2635,-6.1752 4.5547,-4.3094 3.3115,1.4913 5.5336,4.7005 8.9828,5.9688 4.0815,-9.1358 -0.0664,-20.245 5.8641,-28.722 0.44599,7.6842 -1.5629,17.082 4.4844,23.183 5.0135,0.82495 5.6005,-5.6828 6.914,-8.9469 0.56795,-2.0356 3.5134,-2.674 2.9766,0.3078 0.79281,4.189 0.4903,10.274 4.3797,12.813 5.7196,-0.51347 5.2494,-7.7572 7.9031,-11.323 2.3369,-2.5331 4.6616,2.2257 4.5031,4.2312 0.32009,3.3166 1.0159,9.1649 5.6891,8.4781 3.2015,-0.28536 3.1921,-6.8765 7.2437,-5.9781 2.8877,1.3865 3.918,4.7729 4.9734,7.5562 7.7029,-7.3424 7.4927,-19.585 4.2359,-28.923 -1.2805,-2.6441 -4.793,-1.8451 -5.6203,0.70312 -1.3498,1.7979 -1.7295,5.1297 -3.6391,6.1344 -1.5592,-3.4094 -1.107,-7.737 -2.6266,-11.352 -1.2075,-3.0125 -2.2901,-8.7472 -6.5469,-8.3547 -3.9292,1.2451 -2.4832,8.5991 -7.6438,6.8797 -3.5024,-3.5303 -1.104,-9.3807 -2.0875,-13.883 0.13636,-3.0266 -3.1099,-6.9608 -5.8875,-5.164 -0.94197,3.9723 -8.67,7.3963 -9.8953,2.0703 0.93287,-9.297 4.5462,-18.399 4.1609,-27.908 0.35448,-7.1797 -3.7667,-15.31 -11.587,-16.12 -7.0644,-1.5452 -13.144,3.6797 -19.529,5.8608 -19.818,8.8872 -39.832,19.632 -61.849,21.088 -1.4877,0.1833 -4.908,-1.1499 -1.6282,-2.2668 22.481,-12.416 48.609,-18.272 68.903,-34.693 12.875,-8.0812 30.404,-6.0853 41.716,3.6719 16.631,4.5118 31.102,14.376 44.711,24.739 1.1753,-6.0488 2.752,-12.092 2.8359,-18.295 -3.6772,-2.6479 -6.0248,3.543 -9.2922,2.9938 -2.6138,-3.4206 -0.33527,-8.464 -0.62031,-12.517 1.0083,-3.651 -3.4353,-3.0975 -5.0672,-1.2047 -1.8946,1.784 -5.3793,5.5037 -7.5672,2.1172 -4.9874,-7.7539 3.9433,-17.105 -0.92344,-25.045 -1.0378,-1.6493 -2.9727,-4.5138 -3.325,-0.85626 -1.5748,3.9381 -3.5301,11.402 -9.1859,10.197 -5.6188,-2.2042 -3.3234,-9.6432 -2.5297,-14.106 0.5949,-3.1666 0.14401,-6.6442 -1.9984,-9.1688 -3.1513,3.4704 -3.8827,10.834 -9.7047,10.458 -5.8659,-3.9173 2.0741,-12.034 -2.5859,-16.783 -2.6911,-2.7254 -4.9606,2.8476 -6.9688,4.3516 -2.0938,2.6748 -6.371,6.5943 -9.1516,2.525 -3.7107,-4.9322 2.3768,-9.8319 4.3484,-14.166 2.859,-3.8788 1.4884,-8.5833 1.5859,-12.95 0.3428,-7.882 4.397,-17.587 -1.5172,-24.395 -3.5659,-4.0771 -9.5924,-1.2309 -13.983,-0.10156 -17.986,6.7502 -28.737,26.73 -48.7,29.067 -9.2576,-0.58339 -15.67,7.7762 -24.414,9.0359 14.617,-12.323 33.072,-18.745 48.256,-30.278 13.766,-9.2317 26.677,-23.091 44.414,-23.178 9.8181,0.23918 18.414,6.0372 27.439,9.3888 9.0738,3.8113 17.254,9.4402 25.312,14.846 4.7178,1.3828 6.1987,-4.8758 5.8141,-8.3703 -0.004,-4.1535 -2.3356,-10.69 -7.5969,-9.3406 -4.2208,1.974 -5.4796,-3.4989 -5.1634,-6.3945 -0.42419,-3.1824 0.76123,-8.4516 -3.1819,-9.918 -1.3073,2.3522 -2.6149,7.4458 -6.0969,6.4266 -3.7617,-4.2745 -3.9954,-10.907 -2.7141,-16.244 -2.6595,-2.6516 -7.056,-1.7099 -8.6656,1.6234 -0.96938,2.6249 -5.4493,6.4392 -6.6797,1.9422 -1.2339,-4.677 3.3396,-11.077 -1.3375,-14.739 -4.5543,1.5843 -10.958,6.3018 -16.231,2.6781 -3.5116,-2.3006 -0.58379,-6.9911 -0.71887,-10.369 1.9426,-11.544 5.361,-24.467 -0.58269,-35.47 -13.995,-2.9884 -26.293,6.4084 -37.384,13.403 -6.9811,4.761 -15.029,7.4518 -23.333,8.6453 -8.7899,2.4183 -16.209,8.0337 -24.678,11.237 21.19,-22.536 51.238,-32.679 78.612,-45.437 13.378,-4.7066 25.91,4.5757 36.955,11.056 12.628,4.8074 22.656,14.821 35.361,19.694 1.5072,-4.3259 -0.67588,-10.635 -6.0359,-10.266 -3.1469,0.81577 0.17561,-3.4235 0.18594,-5.0203 1.5461,-3.3385 -0.26231,-7.0821 -3.6219,-8.2859 -4.0538,-2.6503 -7.5844,3.2218 -11.472,2.3203 -1.9494,-1.9959 1.4537,-4.9844 1.6969,-7.3094 1.4941,-2.7376 0.58027,-7.4248 -2.8078,-7.7812 -4.3896,1.666 -7.7056,7.9117 -12.519,6.5578 0.49003,-5.1672 2.6926,-10.312 1.4219,-15.544 -4.2738,0.4287 -8.2172,5.2013 -12.478,3.0719 -2.7038,-3.4256 0.2,-8.2236 0.47649,-12.07 2.029,-8.905 5.5299,-19.783 -0.31556,-27.994 -2.5792,-3.0489 -6.7116,-4.2955 -10.6,-4.1688 z m 159.13,8.0656 c -5.1486,0.83587 -10.697,1.3749 -15.311,3.9625 -3.0822,2.1864 2.221,4.1405 3.7052,5.9207 8.7723,7.0421 20.577,15.473 19.35,28.014 -5.876,8.6148 -17.43,10.272 -27.115,11.203 -7.4818,0.76739 -15.155,1.0889 -22.31,3.6224 -9.9957,-7.3417 -15.025,-20.195 -26.58,-25.655 -2.4049,-2.0505 -7.3268,-2.7475 -7.6047,-6.3422 1.7774,-2.6198 6.1145,-0.7913 8.5797,0.12187 5.9422,2.7944 9.9177,8.7845 15.756,11.477 14.535,-2.6243 29.63,-3.0898 43.559,-8.45 -4.4718,-12.541 -19.786,-21.029 -32.606,-16.489 -13.316,3.2637 -29.398,0.8925 -40.531,10.617 -9.0749,8.3183 -7.9321,22.1 -4.8566,32.897 7.1839,23.219 28.081,41.199 51.574,46.492 15.349,-1.7648 32.42,2.7663 46.572,-5.3531 4.2875,-2.5908 7.3246,-6.8337 9.0859,-11.466 -19.743,4.1802 -40.291,9.4589 -60.391,5.3641 1.9334,-3.9755 8.6514,-1.2114 10.597,-5.0047 -0.24224,-2.8642 -6.1622,-4.1616 -3.3328,-7.3578 4.5149,-2.389 9.8531,-1.2037 14.734,-2.3328 0.23882,-5.3062 -6.7661,-5.4405 -10.295,-6.6938 -1.9402,0.28497 -5.3649,-3.7349 -1.7141,-3.5016 21.367,-1.2155 44.514,-5.4878 60.212,-21.27 6.4307,-5.1771 5.4859,-17.744 -3.0547,-20.152 -9.5309,-5.4202 -14.348,-18.619 -26.358,-19.592 -0.55427,-0.0384 -1.1103,-0.0478 -1.6656,-0.0312 z m -12.939,34.487 c -11.517,0.49884 -22.759,3.5718 -34.275,4.2516 2.5174,6.881 10.527,9.0594 17.088,7.4898 7.9313,-1.2821 15.702,-4.5652 23.719,-4.5383 2.1971,-1.1075 4.6021,-4.9739 1.2266,-6.2609 -2.4416,-0.9912 -5.1703,-0.92712 -7.7578,-0.94219 z m 136.25,401 c -2.0097,2.0828 -0.69991,6.8201 0.99844,9.4141 3.8514,5.3598 9.0868,9.4155 10.795,16.008 6.5307,12.899 21.691,16.952 32.9,24.523 3.6492,2.1878 10.332,2.3272 11.18,7.3797 0.37072,2.5562 -3.2064,1.1573 -4.5031,2.5484 -3.7078,1.9764 -8.5498,5.5842 -12.472,2.1 -6.3233,-3.1463 -12.14,-8.9586 -19.752,-8.2141 1.3492,10.741 4.1354,21.541 9.3062,31.061 39.53,27.525 81.821,50.888 125.21,71.691 5.5408,5.5742 -1.6306,14.784 3.9641,20.572 1.6461,2.1266 5.2481,4.7176 4.75,7.0875 -28.903,-6.6205 -52.03,-27.554 -80.273,-36.131 -10.091,-0.95925 -15.841,12.106 -11.611,20.259 16.928,29.783 47.009,48.463 76.028,64.852 17.138,9.9472 34.36,19.742 52.32,28.147 7.6209,4.166 15.809,7.966 22.141,13.948 6.0932,8.5511 3.7038,21.292 12.631,28.142 12.47396,10.752 27.74596,17.587 42.46796,24.671 25.876,12.137 52.432,22.833 79.559,31.844 v -239.94 c -66.628,-20.785 -135.63996,-32.285 -203.34996,-48.687 -21.157,-7.6736 -40.398,-20.071 -62.121,-26.338 -29.564,-10.689 -56.342,-27.411 -83.29,-43.342 -2.128,-1.0536 -4.4866,-1.7471 -6.8812,-1.5922 z"
           id="path879" />
        <path
           style="fill:#7f2b21"
           inkscape:connector-curvature="0"
           d="m 320.01,476.22 c -2.4179,2.0974 -5.6125,2.8772 -8.6212,2.1466 -35.191,3.3752 -71.421,-2.4078 -106,7.0237 -3.3437,17.682 -5.4196,35.571 -7.25,53.464 72.098,-5.6904 145.06,-0.2573 215.28,17.072 22.447,4.2339 44.215,11.902 66.048,18.795 64.856,21.772 128.18,51.394 180.83,95.746 31.828,28.332 64.399,58.973 80.567,99.267 4.5324,11.12 7.2136,22.86 8.4234,34.761 0.49814,1.9711 3.1023,6.6154 3.4638,2.4934 4.8466,-16.841 7.3581,-34.352 8.4424,-51.808 -0.1353,-34.402 -17.509,-66.199 -38.731,-92.244 -38.016,-46.767 -86.574,-84.5 -139.78,-112.5 -62.353,-30.174 -128.68,-53.206 -197.42,-63.021 -21.926,1.2972 -43.284,-6.2942 -65.098,-7.0234 2.284,-0.7463 1.9216,-4.6548 -0.16093,-4.1734 z m -148.3,15.922 c -3.9641,0.75584 -9.0997,0.63551 -12.158,2.5422 -1.6429,16.764 -4.6125,33.354 -6.6094,50.08 4.791,-0.5964 9.506,-1.6519 14.198,-2.7656 -1.7393,-16.902 4.2555,-33.226 5.5562,-49.978 l -0.79397,0.098 -0.19352,0.0239 z m -27.638,5.2219 c -49.436,10.9 -94.723,41.29 -122.3,83.87 -9.626,20.75 -15.233,43.21 -19.432,65.56 1.2344,2.26 3.2056,-5.26 4.5429,-7.3 9.4001,-20.6 24.166,-38.38 41.919,-52.24 25.43,-21.18 57.72,-30.98 89.02,-39.8 1.4674,-16.896 4.1728,-33.711 7.4406,-50.348 l -0.78064,0.17495 -0.41156,0.0922 z"
           id="path881" />
      </g>
      <g
         style="fill:#666666;fill-opacity:1"
         inkscape:label="Layer 1"
         id="layer1-6"
         transform="matrix(1.3283655,0.31349616,-0.23477256,0.79334222,-953.39755,-626.392)">
        <g
           style="fill:#666666;fill-opacity:1"
           id="g3"
           transform="translate(534.64286,392.96318)">
          <path
             style="fill:#666666;fill-opacity:1"
             inkscape:connector-curvature="0"
             d="m 122.5,49.218 c -16.642,0 -30.182,13.54 -30.182,30.181 0,16.641 13.541,30.181 30.182,30.181 16.641,0 30.181,-13.54 30.181,-30.181 0,-16.641 -13.539,-30.181 -30.181,-30.181 z m 0,56.156 c -14.347,0 -25.976,-11.629 -25.976,-25.975 0,-14.346 11.628,-25.975 25.976,-25.975 14.345,0 25.975,11.629 25.975,25.975 0,14.346 -11.63,25.975 -25.975,25.975 z m 54.773,-21.113 c 0.141,-1.603 0.227,-3.223 0.227,-4.862 0,-1.639 -0.086,-3.259 -0.227,-4.862 l -10.918,-1.293 c -0.507,-3.644 -1.457,-7.142 -2.794,-10.446 l 8.815,-6.581 c -1.377,-2.959 -3.012,-5.773 -4.873,-8.417 l -10.106,4.344 c -2.228,-2.849 -4.794,-5.416 -7.642,-7.642 l 4.342,-10.107 c -2.644,-1.859 -5.457,-3.495 -8.416,-4.872 l -6.582,8.814 C 135.796,37 132.296,36.05 128.654,35.544 l -1.293,-10.919 c -1.603,-0.14 -3.223,-0.226 -4.862,-0.226 -1.642,0 -3.259,0.086 -4.864,0.226 l -1.291,10.919 C 112.7,36.05 109.201,37 105.898,38.337 L 99.317,29.523 C 96.358,30.9 93.545,32.535 90.9,34.395 l 4.342,10.107 c -2.848,2.228 -5.414,4.793 -7.641,7.642 L 77.495,47.8 c -1.86,2.645 -3.494,5.458 -4.872,8.417 l 8.814,6.581 C 80.1,66.102 79.15,69.6 78.644,73.244 l -10.919,1.292 c -0.14,1.604 -0.225,3.224 -0.225,4.863 0,1.639 0.085,3.259 0.226,4.863 l 10.919,1.292 c 0.507,3.643 1.457,7.142 2.793,10.446 l -8.814,6.581 c 1.378,2.959 3.012,5.773 4.872,8.417 l 10.107,-4.343 c 2.227,2.848 4.793,5.413 7.641,7.641 l -4.342,10.106 c 2.645,1.86 5.458,3.496 8.417,4.873 l 6.581,-8.814 c 3.303,1.336 6.803,2.286 10.446,2.793 l 1.291,10.919 c 1.605,0.14 3.223,0.226 4.864,0.226 1.639,0 3.259,-0.086 4.862,-0.226 l 1.293,-10.919 c 3.642,-0.507 7.142,-1.457 10.445,-2.793 l 6.582,8.814 c 2.958,-1.377 5.772,-3.012 8.416,-4.871 l -4.342,-10.108 c 2.848,-2.228 5.414,-4.793 7.642,-7.641 l 10.106,4.343 c 1.86,-2.645 3.496,-5.458 4.873,-8.417 L 163.561,96 c 1.337,-3.304 2.287,-6.803 2.794,-10.446 z M 122.5,111.714 c -17.819,0 -32.315,-14.497 -32.315,-32.314 0,-17.817 14.496,-32.314 32.315,-32.314 17.817,0 32.314,14.497 32.314,32.314 0,17.817 -14.497,32.314 -32.314,32.314 z"
             id="path5" />
          <path
             style="fill:#666666;fill-opacity:1"
             id="path1019"
             d="m 122.5,49.218 c -16.642,0 -30.182,13.54 -30.182,30.181 0,16.641 13.541,30.181 30.182,30.181 16.641,0 30.181,-13.54 30.181,-30.181 0,-16.641 -13.539,-30.181 -30.181,-30.181 z m 0,56.156 c -14.347,0 -25.976,-11.629 -25.976,-25.975 0,-14.346 11.628,-25.975 25.976,-25.975 14.345,0 25.975,11.629 25.975,25.975 0,14.346 -11.63,25.975 -25.975,25.975 z m 54.773,-21.113 c 0.141,-1.603 0.227,-3.223 0.227,-4.862 0,-1.639 -0.086,-3.259 -0.227,-4.862 l -10.918,-1.293 c -0.507,-3.644 -1.457,-7.142 -2.794,-10.446 l 8.815,-6.581 c -1.377,-2.959 -3.012,-5.773 -4.873,-8.417 l -10.106,4.344 c -2.228,-2.849 -4.794,-5.416 -7.642,-7.642 l 4.342,-10.107 c -2.644,-1.859 -5.457,-3.495 -8.416,-4.872 l -6.582,8.814 C 135.796,37 132.296,36.05 128.654,35.544 l -1.293,-10.919 c -1.603,-0.14 -3.223,-0.226 -4.862,-0.226 -1.642,0 -3.259,0.086 -4.864,0.226 l -1.291,10.919 C 112.7,36.05 109.201,37 105.898,38.337 L 99.317,29.523 C 96.358,30.9 93.545,32.535 90.9,34.395 l 4.342,10.107 c -2.848,2.228 -5.414,4.793 -7.641,7.642 L 77.495,47.8 c -1.86,2.645 -3.494,5.458 -4.872,8.417 l 8.814,6.581 C 80.1,66.102 79.15,69.6 78.644,73.244 l -10.919,1.292 c -0.14,1.604 -0.225,3.224 -0.225,4.863 0,1.639 0.085,3.259 0.226,4.863 l 10.919,1.292 c 0.507,3.643 1.457,7.142 2.793,10.446 l -8.814,6.581 c 1.378,2.959 3.012,5.773 4.872,8.417 l 10.107,-4.343 c 2.227,2.848 4.793,5.413 7.641,7.641 l -4.342,10.106 c 2.645,1.86 5.458,3.496 8.417,4.873 l 6.581,-8.814 c 3.303,1.336 6.803,2.286 10.446,2.793 l 1.291,10.919 c 1.605,0.14 3.223,0.226 4.864,0.226 1.639,0 3.259,-0.086 4.862,-0.226 l 1.293,-10.919 c 3.642,-0.507 7.142,-1.457 10.445,-2.793 l 6.582,8.814 c 2.958,-1.377 5.772,-3.012 8.416,-4.871 l -4.342,-10.108 c 2.848,-2.228 5.414,-4.793 7.642,-7.641 l 10.106,4.343 c 1.86,-2.645 3.496,-5.458 4.873,-8.417 L 163.561,96 c 1.337,-3.304 2.287,-6.803 2.794,-10.446 z M 122.5,111.714 c -17.819,0 -32.315,-14.497 -32.315,-32.314 0,-17.817 14.496,-32.314 32.315,-32.314 17.817,0 32.314,14.497 32.314,32.314 0,17.817 -14.497,32.314 -32.314,32.314 z"
             inkscape:connector-curvature="0" />
        </g>
      </g>
      <g
         transform="matrix(1.3283655,0.31349616,-0.23477256,0.79334222,-955.08135,-625.08238)"
         id="g1056"
         inkscape:label="Layer 1"
         style="fill:#d9d6d1;fill-opacity:1">
        <g
           transform="translate(534.64286,392.96318)"
           id="g1054"
           style="fill:#d9d6d1;fill-opacity:1">
          <path
             id="path1050"
             d="m 122.5,49.218 c -16.642,0 -30.182,13.54 -30.182,30.181 0,16.641 13.541,30.181 30.182,30.181 16.641,0 30.181,-13.54 30.181,-30.181 0,-16.641 -13.539,-30.181 -30.181,-30.181 z m 0,56.156 c -14.347,0 -25.976,-11.629 -25.976,-25.975 0,-14.346 11.628,-25.975 25.976,-25.975 14.345,0 25.975,11.629 25.975,25.975 0,14.346 -11.63,25.975 -25.975,25.975 z m 54.773,-21.113 c 0.141,-1.603 0.227,-3.223 0.227,-4.862 0,-1.639 -0.086,-3.259 -0.227,-4.862 l -10.918,-1.293 c -0.507,-3.644 -1.457,-7.142 -2.794,-10.446 l 8.815,-6.581 c -1.377,-2.959 -3.012,-5.773 -4.873,-8.417 l -10.106,4.344 c -2.228,-2.849 -4.794,-5.416 -7.642,-7.642 l 4.342,-10.107 c -2.644,-1.859 -5.457,-3.495 -8.416,-4.872 l -6.582,8.814 C 135.796,37 132.296,36.05 128.654,35.544 l -1.293,-10.919 c -1.603,-0.14 -3.223,-0.226 -4.862,-0.226 -1.642,0 -3.259,0.086 -4.864,0.226 l -1.291,10.919 C 112.7,36.05 109.201,37 105.898,38.337 L 99.317,29.523 C 96.358,30.9 93.545,32.535 90.9,34.395 l 4.342,10.107 c -2.848,2.228 -5.414,4.793 -7.641,7.642 L 77.495,47.8 c -1.86,2.645 -3.494,5.458 -4.872,8.417 l 8.814,6.581 C 80.1,66.102 79.15,69.6 78.644,73.244 l -10.919,1.292 c -0.14,1.604 -0.225,3.224 -0.225,4.863 0,1.639 0.085,3.259 0.226,4.863 l 10.919,1.292 c 0.507,3.643 1.457,7.142 2.793,10.446 l -8.814,6.581 c 1.378,2.959 3.012,5.773 4.872,8.417 l 10.107,-4.343 c 2.227,2.848 4.793,5.413 7.641,7.641 l -4.342,10.106 c 2.645,1.86 5.458,3.496 8.417,4.873 l 6.581,-8.814 c 3.303,1.336 6.803,2.286 10.446,2.793 l 1.291,10.919 c 1.605,0.14 3.223,0.226 4.864,0.226 1.639,0 3.259,-0.086 4.862,-0.226 l 1.293,-10.919 c 3.642,-0.507 7.142,-1.457 10.445,-2.793 l 6.582,8.814 c 2.958,-1.377 5.772,-3.012 8.416,-4.871 l -4.342,-10.108 c 2.848,-2.228 5.414,-4.793 7.642,-7.641 l 10.106,4.343 c 1.86,-2.645 3.496,-5.458 4.873,-8.417 L 163.561,96 c 1.337,-3.304 2.287,-6.803 2.794,-10.446 z M 122.5,111.714 c -17.819,0 -32.315,-14.497 -32.315,-32.314 0,-17.817 14.496,-32.314 32.315,-32.314 17.817,0 32.314,14.497 32.314,32.314 0,17.817 -14.497,32.314 -32.314,32.314 z"
             inkscape:connector-curvature="0"
             style="fill:#d9d6d1;fill-opacity:1" />
          <path
             inkscape:connector-curvature="0"
             d="m 122.5,49.218 c -16.642,0 -30.182,13.54 -30.182,30.181 0,16.641 13.541,30.181 30.182,30.181 16.641,0 30.181,-13.54 30.181,-30.181 0,-16.641 -13.539,-30.181 -30.181,-30.181 z m 0,56.156 c -14.347,0 -25.976,-11.629 -25.976,-25.975 0,-14.346 11.628,-25.975 25.976,-25.975 14.345,0 25.975,11.629 25.975,25.975 0,14.346 -11.63,25.975 -25.975,25.975 z m 54.773,-21.113 c 0.141,-1.603 0.227,-3.223 0.227,-4.862 0,-1.639 -0.086,-3.259 -0.227,-4.862 l -10.918,-1.293 c -0.507,-3.644 -1.457,-7.142 -2.794,-10.446 l 8.815,-6.581 c -1.377,-2.959 -3.012,-5.773 -4.873,-8.417 l -10.106,4.344 c -2.228,-2.849 -4.794,-5.416 -7.642,-7.642 l 4.342,-10.107 c -2.644,-1.859 -5.457,-3.495 -8.416,-4.872 l -6.582,8.814 C 135.796,37 132.296,36.05 128.654,35.544 l -1.293,-10.919 c -1.603,-0.14 -3.223,-0.226 -4.862,-0.226 -1.642,0 -3.259,0.086 -4.864,0.226 l -1.291,10.919 C 112.7,36.05 109.201,37 105.898,38.337 L 99.317,29.523 C 96.358,30.9 93.545,32.535 90.9,34.395 l 4.342,10.107 c -2.848,2.228 -5.414,4.793 -7.641,7.642 L 77.495,47.8 c -1.86,2.645 -3.494,5.458 -4.872,8.417 l 8.814,6.581 C 80.1,66.102 79.15,69.6 78.644,73.244 l -10.919,1.292 c -0.14,1.604 -0.225,3.224 -0.225,4.863 0,1.639 0.085,3.259 0.226,4.863 l 10.919,1.292 c 0.507,3.643 1.457,7.142 2.793,10.446 l -8.814,6.581 c 1.378,2.959 3.012,5.773 4.872,8.417 l 10.107,-4.343 c 2.227,2.848 4.793,5.413 7.641,7.641 l -4.342,10.106 c 2.645,1.86 5.458,3.496 8.417,4.873 l 6.581,-8.814 c 3.303,1.336 6.803,2.286 10.446,2.793 l 1.291,10.919 c 1.605,0.14 3.223,0.226 4.864,0.226 1.639,0 3.259,-0.086 4.862,-0.226 l 1.293,-10.919 c 3.642,-0.507 7.142,-1.457 10.445,-2.793 l 6.582,8.814 c 2.958,-1.377 5.772,-3.012 8.416,-4.871 l -4.342,-10.108 c 2.848,-2.228 5.414,-4.793 7.642,-7.641 l 10.106,4.343 c 1.86,-2.645 3.496,-5.458 4.873,-8.417 L 163.561,96 c 1.337,-3.304 2.287,-6.803 2.794,-10.446 z M 122.5,111.714 c -17.819,0 -32.315,-14.497 -32.315,-32.314 0,-17.817 14.496,-32.314 32.315,-32.314 17.817,0 32.314,14.497 32.314,32.314 0,17.817 -14.497,32.314 -32.314,32.314 z"
             id="path1052"
             style="fill:#d9d6d1;fill-opacity:1" />
        </g>
      </g>
    </g>
  </g>
</svg>
